<svg version="1" xmlns="http://www.w3.org/2000/svg" width="682.667" height="682.667" viewBox="0 0 512.000000 512.000000"><path d="M470 1.7c0 1 .9 3.3 2 5.1 1.9 3 2 5 2 29v25.7l-14.3 14.3L445.5 90h-25.7c-24 0-26-.1-29-2-4.2-2.5-8.4-2.5-12.6 0-2.4 1.5-5 2-9.7 2-4.7 0-7.3-.5-9.7-2-1.8-1.1-4.2-2-5.3-2-1.2 0-12.9-10.9-32-30l-30.1-30H160.7C31.3 26 30 26 28 28s-2 3.3-2 100.5V227l46 61.3c36 48 46 62 46 64.3 0 1.6.9 4.4 2 6.2 1.9 3.1 2 5 2 41.7s-.1 38.6-2 41.7c-2.5 4.2-2.5 8.4 0 12.6 1.8 3 2 5 2 25.7s-.2 22.7-2 25.7c-3.4 5.6-3.1 5.8 8.5 5.8s11.9-.2 8.5-5.8c-1.8-3-2-5-2-25.7s.2-22.7 2-25.7c1.1-1.8 2-4.2 2-5.3 0-1.3 4.7-6.7 12.3-14.3l12.2-12.2h96l49.7-49.8 49.8-49.7v-192l12.3-12.3c7.4-7.4 13-12.2 14.2-12.2 1.1 0 3.5-.9 5.3-2 3-1.9 5-2 31.9-2h28.7l17.8-17.8L487 67.4V38.7c0-26.9.1-28.9 2-31.9 3.9-6.4 3.3-6.8-8.5-6.8-9.3 0-10.5.2-10.5 1.7zM311 64.5L336.5 90h-82.9l-17.8 17.8-17.8 17.8V250h-60.3l-11.4 11.2-11.3 11.2v-35.2c0-33.4.1-35.3 2-38.4 6.1-10-3.5-20.7-13.9-15.4-5.1 2.7-6.6 9.7-3.1 15.4 1.9 3.1 2 5 2 41.7s-.1 38.6-2 41.7c-1.1 1.8-2 4.6-2 6.3 0 1.6.9 4.5 2 6.3 1.8 2.9 2 5 2 20.4v17.1L80.5 277 39 221.7V39h246.5L311 64.5zm35.2 40.5c1.8 1.1 4.7 2 6.3 2 1.7 0 4.5-.9 6.3-2 1.8-1.1 4.7-2 6.4-2 3.1 0 2.9.3-8 11.3L346 125.7v191.8l-46.2 46.2-46.3 46.3h-95.8l-11.4 11.2-11.3 11.2v-35.2c0-33.4.1-35.3 2-38.4 1.1-1.8 2-4.7 2-6.3 0-1.7-.9-4.5-2-6.3-1.8-3-2-5-2-25.7s.2-22.7 2-25.7c1.1-1.8 2-4.2 2-5.3 0-1.2 4.8-6.8 12.2-14.2l12.3-12.3h31.7c30.5 0 31.9-.1 33.8-2 2-2 2-3.3 2-65.7v-63.8l14.2-14.2 14.3-14.3h41.7c40 0 41.9.1 45 2z"/><path d="M62 128.5V195h5V71.5l29.8 29.8c19 19 30.4 29.7 31.7 29.7 1.3 0 12.7-10.7 31.7-29.7L190 71.5V195h5V62h-2.2c-1.7 0-11 8.8-33.3 31l-31 31-31-31C75.2 70.7 65.9 62 64.3 62H62v66.5zM254 256.5V323h69v-5h-64V195h64v-5h-69v66.5zM350.2 382.5C332.5 418 318 447.9 318 449c0 1.5.7 2 2.5 2 2.3 0 4.9-4.8 33.4-61.7l30.9-61.8 30.8 61.8c27.2 54.2 31.2 61.7 33.1 61.7 1.8 0 2.3-.6 2.3-2.5 0-1.4-14.4-31.3-32-66.5-28.1-56.2-32.3-64-34.3-64-1.9 0-6.1 7.8-34.5 64.5z"/></svg>